{"title":"WAR CHHOD NA YAAR 2013 Hindi 480p DVDRip x264 GOPI SAHI","uid":10072741,"size":308022204,"categoryP":"video","categoryS":"movies","magnet":"?xt=urn:btih:00cafd785283159612707d66c90d9defef921f3b&amp;dn=WAR+CHHOD+NA+YAAR+2013+Hindi+480p+DVDRip+x264+GOPI+SAHI&amp;tr=udp%3A%2F%2Ftracker.openbittorrent.com%3A80&amp;tr=udp%3A%2F%2Fopen.demonii.com%3A1337&amp;tr=udp%3A%2F%2Ftracker.coppersurfer.tk%3A6969&amp;tr=udp%3A%2F%2Fexodus.desync.com%3A6969","seeders":0,"leechers":3,"uploader":"jatt13","files":1,"time":1398875419,"description":"Video\nID                             : 1\nFormat                         : AVC\nFormat/Info                    : Advanced Video Codec\nFormat profile                 : &lt;a class=&quot;__cf_email__&quot; href=&quot;/cdn-cgi/l/email-protection&quot; data-cfemail=&quot;7d301c14133d3149534d&quot;&gt;[email&amp;#160;protected]&lt;/a&gt;&lt;script cf-hash='f9e31' type=&quot;text/javascript&quot;&gt;\n/* &lt;![CDATA[ */!function(){try{var t=&quot;currentScript&quot;in document?document.currentScript:function(){for(var t=document.getElementsByTagName(&quot;script&quot;),e=t.length;e--;)if(t[e].getAttribute(&quot;cf-hash&quot;))return t[e]}();if(t&amp;&amp;t.previousSibling){var e,r,n,i,c=t.previousSibling,a=c.getAttribute(&quot;data-cfemail&quot;);if(a){for(e=&quot;&quot;,r=parseInt(a.substr(0,2),16),n=2;a.length-n;n+=2)i=parseInt(a.substr(n,2),16)^r,e+=String.fromCharCode(i);e=document.createTextNode(e),c.parentNode.replaceChild(e,c)}}}catch(u){}}();/* ]]&gt; */&lt;/script&gt;\nFormat settings, CABAC         : Yes\nFormat settings, ReFrames      : 4 frames\nCodec ID                       : V_MPEG4/ISO/AVC\nDuration                       : 1h 53mn\nBit rate                       : 300 Kbps\nWidth                          : 720 pixels\nHeight                         : 304 pixels\nDisplay aspect ratio           : 2.35:1\nFrame rate mode                : Constant\nFrame rate                     : 29.970 fps\nColor space                    : YUV\nChroma subsampling             : 4:2:0\nBit depth                      : 8 bits\nScan type                      : Progressive\nBits/(Pixel*Frame)             : 0.046\nStream size                    : 242 MiB (83%)\nLanguage                       : English\nDefault                        : Yes\nForced                         : No\nColor primaries                : BT.709\nTransfer characteristics       : BT.709\nMatrix coefficients            : BT.709\n\nAudio\nID                             : 2\nFormat                         : MPEG Audio\nFormat version                 : Version 1\nFormat profile                 : Layer 3\nMode                           : Joint stereo\nMode extension                 : MS Stereo\nCodec ID                       : A_MPEG/L3\nCodec ID/Hint                  : MP3\nDuration                       : 1h 53mn\nBit rate mode                  : Constant\nBit rate                       : 56.0 Kbps\nChannel count                  : 2 channels\nSampling rate                  : 44.1 KHz\nCompression mode               : Lossy\nStream size                    : 45.5 MiB (15%)\nWriting library                : LAME3.98.2\nDefault                        : Yes\nForced                         : No\n[IMG]http://i.imgur.com/AaGpyf3.jpg[/IMG]\n[IMG]http://i.imgur.com/I23t3OW.jpg[/IMG]\n[IMG]http://i.imgur.com/oN1GCi2.jpg[/IMG]\n[IMG]http://i.imgur.com/UJ4lqa6.jpg[/IMG]","torrent":{"xt":"urn:btih:00cafd785283159612707d66c90d9defef921f3b","amp;dn":"WAR+CHHOD+NA+YAAR+2013+Hindi+480p+DVDRip+x264+GOPI+SAHI","amp;tr":["udp%3A%2F%2Ftracker.openbittorrent.com%3A80","udp%3A%2F%2Fopen.demonii.com%3A1337","udp%3A%2F%2Ftracker.coppersurfer.tk%3A6969","udp%3A%2F%2Fexodus.desync.com%3A6969"],"infoHash":"00cafd785283159612707d66c90d9defef921f3b","infoHashBuffer":{"type":"Buffer","data":[0,202,253,120,82,131,21,150,18,112,125,102,201,13,157,239,239,146,31,59]},"announce":[],"urlList":[]}}